<svg xmlns="http://www.w3.org/2000/svg" width="582" height="570" viewBox="0 0 582 570" version="1.1"><path d="M 182.061 185.017 C 147.322 189.891, 119.875 216.320, 110.937 253.500 C 109.879 257.900, 109.011 261.837, 109.007 262.250 C 109.003 262.663, 115.222 263, 122.826 263 L 136.652 263 138.832 251.953 C 147.095 210.072, 171.842 185.793, 201.145 190.818 C 225.671 195.024, 244.762 219.119, 251.509 254.386 C 252.329 258.670, 253 262.361, 253 262.588 C 253 262.815, 259.300 263, 267 263 L 281 263 280.993 260.250 C 280.983 256.177, 277.443 242.297, 274.805 235.986 C 269.841 224.111, 264.746 216.540, 255.565 207.399 C 247.908 199.775, 244.889 197.542, 236.962 193.639 C 231.758 191.077, 223.903 188.075, 219.506 186.969 C 210.251 184.640, 191.655 183.670, 182.061 185.017 M 306.417 188.917 C 306.188 189.146, 306 190.329, 306 191.546 C 306 193.516, 306.754 193.870, 312.884 194.780 C 321.041 195.991, 324.183 197.821, 326.664 202.809 C 328.289 206.075, 328.537 209.751, 328.820 234.750 L 329.139 263 342.070 263 L 355 263 355.054 240.750 C 355.160 197.018, 356.388 194.377, 376.500 194.626 C 400.888 194.929, 414.552 204.697, 418.892 224.932 C 420.475 232.312, 420.265 248.562, 418.500 255.339 C 417.675 258.506, 417 261.526, 417 262.049 C 417 262.597, 422.069 263, 428.977 263 C 442.704 263, 442.190 263.316, 446.234 252.379 C 447.938 247.772, 448.418 244.229, 448.454 236 C 448.497 226.150, 448.295 225.067, 445.196 218.500 C 438.364 204.026, 425.494 194.834, 405.721 190.307 C 399.599 188.905, 391.525 188.642, 352.667 188.577 C 327.458 188.535, 306.646 188.688, 306.417 188.917 M 128.323 280.630 C 124.279 286.802, 127.335 294, 134 294 C 140.714 294, 144.274 286.161, 140.018 280.750 C 136.978 276.885, 130.818 276.822, 128.323 280.630 M 150 278.737 C 153.445 279.377, 153.967 280.558, 153.985 287.750 C 154.006 296.438, 155.847 295.615, 156.206 286.757 C 156.496 279.604, 156.538 279.506, 159.500 278.875 C 161.337 278.484, 159.592 278.244, 155 278.254 C 150.875 278.264, 148.625 278.481, 150 278.737 M 172.536 278.941 C 171.851 280.050, 167 292.827, 167 293.523 C 167 294.908, 168.955 293.717, 169.500 292 C 169.989 290.460, 171.013 290, 173.951 290 C 176.926 290, 177.882 290.441, 178.290 292 C 178.577 293.100, 179.523 294, 180.392 294 C 181.765 294, 181.697 293.315, 179.873 288.750 C 178.720 285.863, 177.332 282.262, 176.790 280.750 C 175.816 278.032, 173.664 277.117, 172.536 278.941 M 189 286 L 189 294 193.929 294 C 197.076 294, 199.425 293.432, 200.429 292.429 C 202.358 290.499, 202.378 289.899, 200.591 287.455 C 199.619 286.126, 199.475 284.981, 200.126 283.764 C 201.969 280.320, 199.489 278, 193.965 278 L 189 278 189 286 M 211.428 280.080 C 208.772 283.015, 208.917 289.362, 211.705 292.149 C 214.412 294.857, 219.583 294.861, 222.286 292.159 C 224.943 289.502, 225.102 282.875, 222.576 280.084 C 220.017 277.256, 213.985 277.254, 211.428 280.080 M 232.538 280.750 C 233.511 282.262, 234.913 284.388, 235.653 285.473 C 236.394 286.557, 237 288.920, 237 290.723 C 237 292.821, 237.490 294, 238.361 294 C 239.280 294, 239.565 293.174, 239.237 291.460 C 238.908 289.738, 239.758 287.300, 241.876 283.893 C 245.418 278.194, 245.479 278, 243.716 278 C 243.009 278, 241.592 279.420, 240.567 281.156 L 238.703 284.312 236.101 281.147 C 232.749 277.069, 229.972 276.759, 232.538 280.750 M 265 286 C 265 292.489, 265.287 294, 266.519 294 C 267.622 294, 267.874 293.344, 267.438 291.609 C 266.452 287.679, 269.006 287.244, 272 290.831 C 275.546 295.079, 277.494 294.951, 274.948 290.637 C 273.188 287.654, 273.136 287.132, 274.482 286.015 C 276.299 284.507, 276.469 280.869, 274.800 279.200 C 274.140 278.540, 271.665 278, 269.300 278 L 265 278 265 286 M 286.663 285.590 C 285.102 289.753, 284.060 293.393, 284.346 293.680 C 285.193 294.526, 287 293.001, 287 291.441 C 287 290.434, 288.169 290, 290.883 290 C 293.926 290, 294.880 290.433, 295.290 292 C 295.577 293.100, 296.474 294, 297.283 294 C 298.445 294, 298.113 292.322, 295.700 286 C 291.763 275.688, 290.398 275.626, 286.663 285.590 M 307 286 C 307 290.667, 307.417 294, 308 294 C 308.550 294, 309 292.650, 309 291 C 309 289.350, 309.366 288, 309.813 288 C 310.260 288, 311.919 289.350, 313.500 291 C 315.081 292.650, 317.056 294, 317.890 294 C 318.851 294, 318.001 292.562, 315.571 290.072 L 311.735 286.145 314.882 282.327 C 316.816 279.981, 317.575 278.358, 316.851 278.117 C 316.203 277.901, 314.509 279.141, 313.087 280.871 C 309.865 284.790, 309 284.817, 309 281 C 309 279.350, 308.550 278, 308 278 C 307.417 278, 307 281.333, 307 286 M 327 285.917 C 327 292.435, 327.290 294, 328.500 294 C 329.552 294, 330 292.938, 330 290.440 C 330 286.937, 330.061 286.884, 333.750 287.190 C 337.174 287.473, 337.527 287.783, 337.813 290.750 C 338.436 297.210, 340 293.814, 340 286 C 340 279.410, 339.724 278, 338.436 278 C 337.274 278, 336.953 278.835, 337.186 281.250 C 337.485 284.340, 337.318 284.515, 333.818 284.806 C 330.325 285.097, 330.119 284.946, 329.818 281.883 C 329.643 280.107, 328.938 278.469, 328.250 278.244 C 327.319 277.938, 327 279.898, 327 285.917 M 349.518 284.674 C 349.125 288.345, 348.575 291.945, 348.295 292.674 C 348.002 293.436, 348.469 294, 349.393 294 C 350.581 294, 351.004 293.021, 351.015 290.250 C 351.041 284.025, 352.387 283.555, 354.511 289.029 C 356.632 294.494, 358.526 295.343, 360.025 291.500 C 363.378 282.905, 363.233 283, 364.236 288.750 C 364.762 291.761, 365.680 294, 366.390 294 C 367.359 294, 367.395 292.319, 366.555 286.250 C 365.203 276.474, 363.413 275.968, 360.364 284.500 C 357.987 291.152, 358.389 291.343, 354.588 281.750 C 352.237 275.816, 350.350 276.904, 349.518 284.674 M 377.073 280.635 C 371.898 287.213, 377.704 296.393, 385.352 293.727 C 390.601 291.898, 392.175 284.246, 388.227 279.750 C 385.758 276.939, 379.595 277.428, 377.073 280.635 M 399 286 C 399 295.115, 400.745 296.942, 401.200 288.302 L 401.500 282.604 405.416 288.302 C 410.879 296.250, 412 295.858, 412 286 C 412 279.684, 411.695 278, 410.552 278 C 409.519 278, 409.018 279.449, 408.802 283.061 L 408.500 288.122 404.731 283.061 C 402.657 280.278, 400.520 278, 399.981 278 C 399.422 278, 399 281.439, 399 286 M 422.073 280.635 C 417.540 286.398, 420.627 294, 427.500 294 C 432.215 294, 435 291.112, 435 286.223 C 435 280.670, 432.732 278, 428.016 278 C 425.025 278, 423.674 278.599, 422.073 280.635 M 444.094 283.250 C 445.242 286.137, 446.693 289.751, 447.320 291.279 C 449.094 295.603, 451.198 294.136, 454.187 286.491 C 457.239 278.686, 457.392 278, 456.082 278 C 455.577 278, 454.116 280.700, 452.837 284 C 450.723 289.452, 449 291.668, 449 288.935 C 449 286.478, 444.644 278, 443.381 278 C 442.308 278, 442.463 279.146, 444.094 283.250 M 131.039 281.189 C 128.443 283.975, 128.426 288.426, 131 291 C 133.408 293.408, 133.917 293.447, 136.777 291.443 C 139.683 289.408, 139.802 283.802, 137 281 C 134.460 278.460, 133.555 278.488, 131.039 281.189 M 192.667 279.667 C 192.300 280.033, 192 281.383, 192 282.667 C 192 285.444, 195.029 285.875, 197.090 283.392 C 198.224 282.025, 198.138 281.574, 196.521 280.392 C 194.393 278.835, 193.640 278.694, 192.667 279.667 M 214 281 C 212.889 282.111, 212 284.333, 212 286 C 212 288.897, 214.931 293, 217 293 C 218.761 293, 222 289.070, 222 286.934 C 222 283.458, 219.086 279.063, 216.750 279.015 C 216.338 279.007, 215.100 279.900, 214 281 M 267.384 280.442 C 266.298 283.273, 267.455 285.500, 270.014 285.500 C 271.873 285.500, 272.585 284.898, 272.837 283.113 C 273.338 279.576, 268.606 277.258, 267.384 280.442 M 380 281 C 378.889 282.111, 378 284.333, 378 286 C 378 288.771, 380.905 293, 382.809 293 C 387.030 293, 388.912 284.770, 385.542 281.046 C 383.237 278.499, 382.507 278.493, 380 281 M 425.223 280.557 C 422.009 282.808, 422.091 289.358, 425.359 291.500 C 428.238 293.386, 430.360 292.700, 431.865 289.398 C 433.452 285.913, 433.300 284.651, 430.927 281.635 C 428.506 278.557, 428.169 278.493, 425.223 280.557 M 173.157 283.707 C 171.491 286.819, 171.723 288, 174 288 C 176.094 288, 176.379 286.829, 175.087 283.522 C 174.332 281.589, 174.288 281.594, 173.157 283.707 M 289.661 283.441 C 288.498 286.472, 288.946 288, 291 288 C 293.312 288, 293.583 286.179, 291.661 283.551 C 290.411 281.841, 290.278 281.834, 289.661 283.441 M 192.698 286.636 C 191.644 287.689, 191.862 291.796, 193.009 292.506 C 195.020 293.748, 198 291.913, 198 289.433 C 198 288.095, 197.587 287, 197.082 287 C 196.577 287, 195.541 286.761, 194.780 286.469 C 194.018 286.177, 193.082 286.252, 192.698 286.636 M 328.826 340.316 C 328.370 371.395, 327.797 372.693, 313.360 375.346 C 307.036 376.508, 306.475 376.816, 306.185 379.291 L 305.870 381.975 341.685 381.737 L 377.500 381.500 377.500 379.023 C 377.500 376.744, 376.967 376.458, 370.853 375.455 C 363.113 374.186, 359.703 372.240, 357.338 367.741 C 355.914 365.033, 355.561 360.606, 355.193 340.816 L 354.754 317.133 348.627 316.648 C 345.257 316.381, 339.503 316.156, 335.840 316.147 L 329.180 316.132 328.826 340.316 M 110.604 319.750 C 115.148 339.195, 127.238 358.742, 141.220 369.248 C 153.013 378.109, 161.874 381.904, 177 384.568 C 205.398 389.571, 231.744 382.757, 250.770 365.487 C 263.528 353.907, 274.602 335.563, 278.381 319.750 L 279.038 317 265.147 317 L 251.256 317 250.609 321.046 C 249.411 328.533, 243.459 344.441, 239.026 352 C 228.335 370.232, 213.346 380.019, 196.161 379.988 C 182.871 379.964, 172.289 375.308, 162.002 364.957 C 152.284 355.179, 143.918 339.481, 140.193 324.034 L 138.500 317.014 124.231 317.007 L 109.962 317 110.604 319.750 M 409 318.150 C 409 318.815, 410.314 324.790, 411.920 331.429 C 413.526 338.068, 415.790 347.775, 416.952 353 C 420.859 370.576, 424.883 377.790, 433.500 382.669 C 438.067 385.255, 439.366 385.500, 448.500 385.500 C 460.481 385.500, 463.769 384.109, 471.757 375.664 C 477.510 369.580, 478.110 367.664, 474.814 365.901 C 472.909 364.881, 472.310 365.102, 470.156 367.615 C 461.900 377.246, 453.824 377.456, 449.083 368.162 C 448.043 366.124, 445.742 358.391, 443.969 350.978 C 442.196 343.565, 439.510 333, 438.001 327.500 L 435.255 317.500 422.128 317.221 C 412.380 317.014, 409 317.253, 409 318.150" stroke="none" fill="#4b51be" fill-rule="evenodd"/><path d="M -0 285.002 L -0 570.003 291.250 569.752 L 582.500 569.500 582.752 284.750 L 583.003 0 291.502 0 L 0 0 -0 285.002 M 0.493 285.500 C 0.493 442.250, 0.609 506.524, 0.750 428.331 C 0.891 350.138, 0.891 221.888, 0.750 143.331 C 0.609 64.774, 0.493 128.750, 0.493 285.500 M 182.061 185.017 C 147.322 189.891, 119.875 216.320, 110.937 253.500 C 109.879 257.900, 109.011 261.837, 109.007 262.250 C 109.003 262.663, 115.222 263, 122.826 263 L 136.652 263 138.832 251.953 C 147.095 210.072, 171.842 185.793, 201.145 190.818 C 225.671 195.024, 244.762 219.119, 251.509 254.386 C 252.329 258.670, 253 262.361, 253 262.588 C 253 262.815, 259.300 263, 267 263 L 281 263 280.993 260.250 C 280.983 256.177, 277.443 242.297, 274.805 235.986 C 269.841 224.111, 264.746 216.540, 255.565 207.399 C 247.908 199.775, 244.889 197.542, 236.962 193.639 C 231.758 191.077, 223.903 188.075, 219.506 186.969 C 210.251 184.640, 191.655 183.670, 182.061 185.017 M 306.417 188.917 C 306.188 189.146, 306 190.329, 306 191.546 C 306 193.516, 306.754 193.870, 312.884 194.780 C 321.041 195.991, 324.183 197.821, 326.664 202.809 C 328.289 206.075, 328.537 209.751, 328.820 234.750 L 329.139 263 342.070 263 L 355 263 355.054 240.750 C 355.160 197.018, 356.388 194.377, 376.500 194.626 C 400.888 194.929, 414.552 204.697, 418.892 224.932 C 420.475 232.312, 420.265 248.562, 418.500 255.339 C 417.675 258.506, 417 261.526, 417 262.049 C 417 262.597, 422.069 263, 428.977 263 C 442.704 263, 442.190 263.316, 446.234 252.379 C 447.938 247.772, 448.418 244.229, 448.454 236 C 448.497 226.150, 448.295 225.067, 445.196 218.500 C 438.364 204.026, 425.494 194.834, 405.721 190.307 C 399.599 188.905, 391.525 188.642, 352.667 188.577 C 327.458 188.535, 306.646 188.688, 306.417 188.917 M 128.323 280.630 C 124.279 286.802, 127.335 294, 134 294 C 140.714 294, 144.274 286.161, 140.018 280.750 C 136.978 276.885, 130.818 276.822, 128.323 280.630 M 150 278.737 C 153.445 279.377, 153.967 280.558, 153.985 287.750 C 154.006 296.438, 155.847 295.615, 156.206 286.757 C 156.496 279.604, 156.538 279.506, 159.500 278.875 C 161.337 278.484, 159.592 278.244, 155 278.254 C 150.875 278.264, 148.625 278.481, 150 278.737 M 172.536 278.941 C 171.851 280.050, 167 292.827, 167 293.523 C 167 294.908, 168.955 293.717, 169.500 292 C 169.989 290.460, 171.013 290, 173.951 290 C 176.926 290, 177.882 290.441, 178.290 292 C 178.577 293.100, 179.523 294, 180.392 294 C 181.765 294, 181.697 293.315, 179.873 288.750 C 178.720 285.863, 177.332 282.262, 176.790 280.750 C 175.816 278.032, 173.664 277.117, 172.536 278.941 M 189 286 L 189 294 193.929 294 C 197.076 294, 199.425 293.432, 200.429 292.429 C 202.358 290.499, 202.378 289.899, 200.591 287.455 C 199.619 286.126, 199.475 284.981, 200.126 283.764 C 201.969 280.320, 199.489 278, 193.965 278 L 189 278 189 286 M 211.428 280.080 C 208.772 283.015, 208.917 289.362, 211.705 292.149 C 214.412 294.857, 219.583 294.861, 222.286 292.159 C 224.943 289.502, 225.102 282.875, 222.576 280.084 C 220.017 277.256, 213.985 277.254, 211.428 280.080 M 232.538 280.750 C 233.511 282.262, 234.913 284.388, 235.653 285.473 C 236.394 286.557, 237 288.920, 237 290.723 C 237 292.821, 237.490 294, 238.361 294 C 239.280 294, 239.565 293.174, 239.237 291.460 C 238.908 289.738, 239.758 287.300, 241.876 283.893 C 245.418 278.194, 245.479 278, 243.716 278 C 243.009 278, 241.592 279.420, 240.567 281.156 L 238.703 284.312 236.101 281.147 C 232.749 277.069, 229.972 276.759, 232.538 280.750 M 265 286 C 265 292.489, 265.287 294, 266.519 294 C 267.622 294, 267.874 293.344, 267.438 291.609 C 266.452 287.679, 269.006 287.244, 272 290.831 C 275.546 295.079, 277.494 294.951, 274.948 290.637 C 273.188 287.654, 273.136 287.132, 274.482 286.015 C 276.299 284.507, 276.469 280.869, 274.800 279.200 C 274.140 278.540, 271.665 278, 269.300 278 L 265 278 265 286 M 286.663 285.590 C 285.102 289.753, 284.060 293.393, 284.346 293.680 C 285.193 294.526, 287 293.001, 287 291.441 C 287 290.434, 288.169 290, 290.883 290 C 293.926 290, 294.880 290.433, 295.290 292 C 295.577 293.100, 296.474 294, 297.283 294 C 298.445 294, 298.113 292.322, 295.700 286 C 291.763 275.688, 290.398 275.626, 286.663 285.590 M 307 286 C 307 290.667, 307.417 294, 308 294 C 308.550 294, 309 292.650, 309 291 C 309 289.350, 309.366 288, 309.813 288 C 310.260 288, 311.919 289.350, 313.500 291 C 315.081 292.650, 317.056 294, 317.890 294 C 318.851 294, 318.001 292.562, 315.571 290.072 L 311.735 286.145 314.882 282.327 C 316.816 279.981, 317.575 278.358, 316.851 278.117 C 316.203 277.901, 314.509 279.141, 313.087 280.871 C 309.865 284.790, 309 284.817, 309 281 C 309 279.350, 308.550 278, 308 278 C 307.417 278, 307 281.333, 307 286 M 327 285.917 C 327 292.435, 327.290 294, 328.500 294 C 329.552 294, 330 292.938, 330 290.440 C 330 286.937, 330.061 286.884, 333.750 287.190 C 337.174 287.473, 337.527 287.783, 337.813 290.750 C 338.436 297.210, 340 293.814, 340 286 C 340 279.410, 339.724 278, 338.436 278 C 337.274 278, 336.953 278.835, 337.186 281.250 C 337.485 284.340, 337.318 284.515, 333.818 284.806 C 330.325 285.097, 330.119 284.946, 329.818 281.883 C 329.643 280.107, 328.938 278.469, 328.250 278.244 C 327.319 277.938, 327 279.898, 327 285.917 M 349.518 284.674 C 349.125 288.345, 348.575 291.945, 348.295 292.674 C 348.002 293.436, 348.469 294, 349.393 294 C 350.581 294, 351.004 293.021, 351.015 290.250 C 351.041 284.025, 352.387 283.555, 354.511 289.029 C 356.632 294.494, 358.526 295.343, 360.025 291.500 C 363.378 282.905, 363.233 283, 364.236 288.750 C 364.762 291.761, 365.680 294, 366.390 294 C 367.359 294, 367.395 292.319, 366.555 286.250 C 365.203 276.474, 363.413 275.968, 360.364 284.500 C 357.987 291.152, 358.389 291.343, 354.588 281.750 C 352.237 275.816, 350.350 276.904, 349.518 284.674 M 377.073 280.635 C 371.898 287.213, 377.704 296.393, 385.352 293.727 C 390.601 291.898, 392.175 284.246, 388.227 279.750 C 385.758 276.939, 379.595 277.428, 377.073 280.635 M 399 286 C 399 295.115, 400.745 296.942, 401.200 288.302 L 401.500 282.604 405.416 288.302 C 410.879 296.250, 412 295.858, 412 286 C 412 279.684, 411.695 278, 410.552 278 C 409.519 278, 409.018 279.449, 408.802 283.061 L 408.500 288.122 404.731 283.061 C 402.657 280.278, 400.520 278, 399.981 278 C 399.422 278, 399 281.439, 399 286 M 422.073 280.635 C 417.540 286.398, 420.627 294, 427.500 294 C 432.215 294, 435 291.112, 435 286.223 C 435 280.670, 432.732 278, 428.016 278 C 425.025 278, 423.674 278.599, 422.073 280.635 M 444.094 283.250 C 445.242 286.137, 446.693 289.751, 447.320 291.279 C 449.094 295.603, 451.198 294.136, 454.187 286.491 C 457.239 278.686, 457.392 278, 456.082 278 C 455.577 278, 454.116 280.700, 452.837 284 C 450.723 289.452, 449 291.668, 449 288.935 C 449 286.478, 444.644 278, 443.381 278 C 442.308 278, 442.463 279.146, 444.094 283.250 M 131.039 281.189 C 128.443 283.975, 128.426 288.426, 131 291 C 133.408 293.408, 133.917 293.447, 136.777 291.443 C 139.683 289.408, 139.802 283.802, 137 281 C 134.460 278.460, 133.555 278.488, 131.039 281.189 M 192.667 279.667 C 192.300 280.033, 192 281.383, 192 282.667 C 192 285.444, 195.029 285.875, 197.090 283.392 C 198.224 282.025, 198.138 281.574, 196.521 280.392 C 194.393 278.835, 193.640 278.694, 192.667 279.667 M 214 281 C 212.889 282.111, 212 284.333, 212 286 C 212 288.897, 214.931 293, 217 293 C 218.761 293, 222 289.070, 222 286.934 C 222 283.458, 219.086 279.063, 216.750 279.015 C 216.338 279.007, 215.100 279.900, 214 281 M 267.384 280.442 C 266.298 283.273, 267.455 285.500, 270.014 285.500 C 271.873 285.500, 272.585 284.898, 272.837 283.113 C 273.338 279.576, 268.606 277.258, 267.384 280.442 M 380 281 C 378.889 282.111, 378 284.333, 378 286 C 378 288.771, 380.905 293, 382.809 293 C 387.030 293, 388.912 284.770, 385.542 281.046 C 383.237 278.499, 382.507 278.493, 380 281 M 425.223 280.557 C 422.009 282.808, 422.091 289.358, 425.359 291.500 C 428.238 293.386, 430.360 292.700, 431.865 289.398 C 433.452 285.913, 433.300 284.651, 430.927 281.635 C 428.506 278.557, 428.169 278.493, 425.223 280.557 M 173.157 283.707 C 171.491 286.819, 171.723 288, 174 288 C 176.094 288, 176.379 286.829, 175.087 283.522 C 174.332 281.589, 174.288 281.594, 173.157 283.707 M 289.661 283.441 C 288.498 286.472, 288.946 288, 291 288 C 293.312 288, 293.583 286.179, 291.661 283.551 C 290.411 281.841, 290.278 281.834, 289.661 283.441 M 192.698 286.636 C 191.644 287.689, 191.862 291.796, 193.009 292.506 C 195.020 293.748, 198 291.913, 198 289.433 C 198 288.095, 197.587 287, 197.082 287 C 196.577 287, 195.541 286.761, 194.780 286.469 C 194.018 286.177, 193.082 286.252, 192.698 286.636 M 328.826 340.316 C 328.370 371.395, 327.797 372.693, 313.360 375.346 C 307.036 376.508, 306.475 376.816, 306.185 379.291 L 305.870 381.975 341.685 381.737 L 377.500 381.500 377.500 379.023 C 377.500 376.744, 376.967 376.458, 370.853 375.455 C 363.113 374.186, 359.703 372.240, 357.338 367.741 C 355.914 365.033, 355.561 360.606, 355.193 340.816 L 354.754 317.133 348.627 316.648 C 345.257 316.381, 339.503 316.156, 335.840 316.147 L 329.180 316.132 328.826 340.316 M 110.604 319.750 C 115.148 339.195, 127.238 358.742, 141.220 369.248 C 153.013 378.109, 161.874 381.904, 177 384.568 C 205.398 389.571, 231.744 382.757, 250.770 365.487 C 263.528 353.907, 274.602 335.563, 278.381 319.750 L 279.038 317 265.147 317 L 251.256 317 250.609 321.046 C 249.411 328.533, 243.459 344.441, 239.026 352 C 228.335 370.232, 213.346 380.019, 196.161 379.988 C 182.871 379.964, 172.289 375.308, 162.002 364.957 C 152.284 355.179, 143.918 339.481, 140.193 324.034 L 138.500 317.014 124.231 317.007 L 109.962 317 110.604 319.750 M 409 318.150 C 409 318.815, 410.314 324.790, 411.920 331.429 C 413.526 338.068, 415.790 347.775, 416.952 353 C 420.859 370.576, 424.883 377.790, 433.500 382.669 C 438.067 385.255, 439.366 385.500, 448.500 385.500 C 460.481 385.500, 463.769 384.109, 471.757 375.664 C 477.510 369.580, 478.110 367.664, 474.814 365.901 C 472.909 364.881, 472.310 365.102, 470.156 367.615 C 461.900 377.246, 453.824 377.456, 449.083 368.162 C 448.043 366.124, 445.742 358.391, 443.969 350.978 C 442.196 343.565, 439.510 333, 438.001 327.500 L 435.255 317.500 422.128 317.221 C 412.380 317.014, 409 317.253, 409 318.150" stroke="none" fill="#eaeafa" fill-rule="evenodd"/></svg>